<svg width="116" height="36" viewBox="0 0 116 36" fill="none" xmlns="http://www.w3.org/2000/svg">
<g id="Logo">
<path id="Logo_2" fill-rule="evenodd" clip-rule="evenodd" d="M61.162 9.029C61.162 10.3023 60.1153 11.402 58.7778 11.402C57.4403 11.402 56.3936 10.3602 56.3936 9.029C56.3936 7.69781 57.3821 6.65601 58.7778 6.65601C60.1734 6.77176 61.162 7.81356 61.162 9.029ZM51.4508 13.7749C51.4508 14.0064 51.4508 14.3537 51.4508 14.3537C51.4508 14.3537 50.3459 12.9067 47.9617 12.9067C44.0073 12.9067 40.9253 15.9164 40.9253 20.0257C40.9253 24.135 43.9492 27.1447 47.9617 27.1447C50.404 27.1447 51.4508 25.6399 51.4508 25.6399V26.2765C51.4508 26.5659 51.6834 26.7974 51.9741 26.7974H54.8817V13.254C54.8817 13.254 52.2067 13.254 51.9741 13.254C51.6834 13.254 51.4508 13.5434 51.4508 13.7749ZM51.4506 22.4566C50.9273 23.2669 49.8224 23.9614 48.543 23.9614C46.217 23.9614 44.4724 22.5145 44.4724 20.0836C44.4724 17.6528 46.2751 16.2058 48.543 16.2058C49.8224 16.2058 50.9854 16.9003 51.4506 17.7106V22.4566ZM57.0913 13.2539H60.5804V26.7973H57.0913V13.2539ZM109.021 12.9068C106.637 12.9068 105.532 14.3537 105.532 14.3537V6.77173H102.043V26.8553C102.043 26.8553 104.718 26.8553 104.95 26.8553C105.241 26.8553 105.474 26.6238 105.474 26.3344V25.6978C105.474 25.6978 106.579 27.2026 108.963 27.2026C112.917 27.2026 115.999 24.193 115.999 20.0836C116.057 15.9164 112.975 12.9068 109.021 12.9068ZM108.439 23.9036C107.102 23.9036 106.055 23.2091 105.532 22.3988V17.5371C106.055 16.8425 107.218 16.0322 108.439 16.0322C110.765 16.0322 112.51 17.4792 112.51 19.91C112.51 22.3409 110.765 23.9036 108.439 23.9036ZM100.24 18.8103V26.9132H96.7508V19.2154C96.7508 16.9582 96.053 16.09 94.0759 16.09C93.0291 16.09 91.9242 16.6109 91.2264 17.4212V26.8553H87.7373V13.254H90.4704C90.7612 13.254 90.9938 13.4855 90.9938 13.7749V14.3537C91.9824 13.3119 93.378 12.9067 94.7155 12.9067C96.2275 12.9067 97.5068 13.3119 98.4954 14.18C99.7747 15.2219 100.24 16.4952 100.24 18.8103ZM79.3054 12.9068C76.9211 12.9068 75.8163 14.3537 75.8163 14.3537V6.77173H72.3271V26.8553C72.3271 26.8553 75.0021 26.8553 75.2347 26.8553C75.5255 26.8553 75.7581 26.6238 75.7581 26.3344V25.6978C75.7581 25.6978 76.863 27.2026 79.2472 27.2026C83.2015 27.2026 86.2836 24.193 86.2836 20.0836C86.3417 15.9164 83.2597 12.9068 79.3054 12.9068ZM78.7238 23.9036C77.3863 23.9036 76.3395 23.2091 75.8162 22.3988V17.5371C76.3395 16.8425 77.5026 16.0322 78.7238 16.0322C81.0498 16.0322 82.7944 17.4792 82.7944 19.91C82.7944 22.3409 81.0498 23.9036 78.7238 23.9036ZM69.3034 12.9067C70.3501 12.9067 70.8735 13.0804 70.8735 13.0804V16.2637C70.8735 16.2637 67.9659 15.2797 66.1632 17.3633V26.8553H62.6741V13.254C62.6741 13.254 65.3491 13.254 65.5817 13.254C65.8724 13.254 66.105 13.4855 66.105 13.7749V14.3537C66.8028 13.6013 68.2566 12.9067 69.3034 12.9067ZM33.191 25.6399C33.0165 25.2347 32.8421 24.7138 32.6676 24.3666C32.3769 23.7299 32.0861 23.0932 31.8535 22.5145L31.7953 22.4566C29.2948 17.074 26.6198 11.5756 23.7704 6.13505L23.6541 5.90354C23.3633 5.38264 23.0726 4.80386 22.7818 4.22508C22.4329 3.58842 22.084 2.89389 21.5025 2.25723C20.3394 0.81029 18.653 0 16.9085 0C15.1058 0 13.4775 0.810289 12.2563 2.14148C11.6748 2.83601 11.2677 3.47267 10.9188 4.1672C10.6281 4.74598 10.3373 5.32476 10.0465 5.84566L9.93024 6.07717C7.13895 11.4598 4.40582 16.9582 1.90529 22.3987L1.84714 22.4566C1.61453 23.0354 1.32377 23.672 1.03301 24.3087C0.858556 24.7138 0.684101 25.119 0.509645 25.582C0.0444307 26.9132 -0.130025 28.1865 0.102583 29.4598C0.509645 32.1801 2.31235 34.4373 4.81288 35.4212C5.74331 35.8264 6.73189 36 7.72047 36C8.01123 36 8.36014 35.9421 8.6509 35.9421C9.87209 35.8264 11.0933 35.4212 12.2563 34.7267C13.7683 33.9164 15.1639 32.701 16.734 30.9646C18.3041 32.701 19.7579 33.8585 21.2117 34.7267C22.4329 35.4212 23.6541 35.8264 24.8171 35.9421C25.1079 36 25.4568 36 25.7475 36C26.7361 36 27.7829 35.8264 28.6551 35.4212C31.2138 34.4373 32.9584 32.1222 33.3654 29.4598C33.7725 28.1865 33.6562 26.9711 33.191 25.6399ZM16.8504 27.4919C14.8732 25.0611 13.652 22.746 13.1868 20.7781C13.0124 19.9678 12.9542 19.2154 13.0705 18.5788C13.1287 18 13.3613 17.4791 13.652 17.0739C14.3499 16.09 15.5129 15.5112 16.8504 15.5112C18.1879 15.5112 19.4091 16.09 20.0487 17.0739C20.3395 17.4791 20.5721 18 20.6303 18.5788C20.7466 19.2154 20.6884 19.9678 20.514 20.7781C20.0487 22.6881 18.7694 25.0032 16.8504 27.4919ZM31.2721 29.1705C31.0394 31.0226 29.7601 32.6432 27.9574 33.3956C27.0851 33.7428 26.1547 33.8586 25.2243 33.7428C24.2938 33.6271 23.4216 33.3377 22.4911 32.8168C21.2118 32.1223 19.8743 30.9647 18.3623 29.3441C20.7466 26.4502 22.2004 23.73 22.7237 21.357C22.9563 20.2573 23.0145 19.2155 22.8982 18.2895C22.7819 17.3634 22.433 16.5531 21.9096 15.8586C20.8047 14.238 18.8857 13.312 16.7922 13.312C14.6988 13.312 12.7798 14.2959 11.6749 15.8586C11.1515 16.5531 10.8608 17.4213 10.6863 18.2895C10.57 19.2155 10.57 20.2573 10.8608 21.357C11.3841 23.73 12.8961 26.4502 15.2221 29.3441C13.7102 31.0226 12.3727 32.1223 11.0934 32.8168C10.1629 33.3377 9.2325 33.6271 8.36023 33.7428C7.37165 33.8586 6.44122 33.685 5.62709 33.3956C3.82438 32.701 2.6032 31.0226 2.31244 29.1705C2.19613 28.2444 2.25428 27.3763 2.66135 26.3345C2.77765 25.9872 2.95211 25.6399 3.12656 25.1769C3.35917 24.5981 3.64993 23.9615 3.94069 23.3827L3.99884 23.3248C6.49937 17.9422 9.17435 12.4438 11.9656 7.11904L12.0819 6.88753C12.3727 6.36663 12.6635 5.78785 12.9542 5.20908C13.245 4.6303 13.5939 4.1094 13.9428 3.64638C14.6988 2.77821 15.7455 2.31519 16.8504 2.31519C17.9553 2.31519 19.002 2.77821 19.758 3.64638C20.1651 4.1094 20.4558 4.6303 20.7466 5.20908C21.0373 5.72998 21.3281 6.30875 21.6188 6.88753L21.7351 7.11904C24.4683 12.5017 27.1433 18.0001 29.6438 23.3248V23.3827C29.9346 23.9615 30.1672 24.5981 30.4579 25.1769C30.6324 25.5821 30.8068 25.9872 30.9231 26.3345C31.3302 27.3184 31.4465 28.2444 31.2721 29.1705Z" fill="#545961"/>
</g>
</svg>
