<svg width="80" height="80" viewBox="0 0 80 80" fill="none" xmlns="http://www.w3.org/2000/svg">
<g id="Background" clip-path="url(#clip0_636_402)">
<rect id="Background_2" opacity="0.2" width="80" height="80" rx="40" fill="#DEA01E"/>
<g id="iconspace_Board_25px">
<path id="Path" fill-rule="evenodd" clip-rule="evenodd" d="M51.5599 33.2C51.5599 30.7873 49.765 28.7939 47.4376 28.4823C47.4655 28.6909 47.4799 28.9037 47.4799 29.12C47.4799 31.7488 45.3488 33.88 42.7199 33.88H37.2799C34.6511 33.88 32.5199 31.7488 32.5199 29.12C32.5199 28.9037 32.5344 28.6909 32.5623 28.4823C30.2349 28.7939 28.4399 30.7873 28.4399 33.2V49.52C28.4399 52.1488 30.5711 54.28 33.1999 54.28H46.7999C49.4288 54.28 51.5599 52.1488 51.5599 49.52V33.2ZM45.4399 43.4H34.5599C34.1844 43.4 33.8799 43.0955 33.8799 42.72C33.8799 42.3444 34.1844 42.04 34.5599 42.04H45.4399C45.8155 42.04 46.1199 42.3444 46.1199 42.72C46.1199 43.0955 45.8155 43.4 45.4399 43.4ZM34.5599 37.96H45.4399C45.8155 37.96 46.1199 37.6555 46.1199 37.28C46.1199 36.9044 45.8155 36.6 45.4399 36.6H34.5599C34.1844 36.6 33.8799 36.9044 33.8799 37.28C33.8799 37.6555 34.1844 37.96 34.5599 37.96ZM45.4399 48.84H34.5599C34.1844 48.84 33.8799 48.5355 33.8799 48.16C33.8799 47.7844 34.1844 47.48 34.5599 47.48H45.4399C45.8155 47.48 46.1199 47.7844 46.1199 48.16C46.1199 48.5355 45.8155 48.84 45.4399 48.84Z" fill="#DEA01E"/>
<path id="Path_2" d="M37.2799 25.72H42.7199C44.5977 25.72 46.1199 27.2422 46.1199 29.12C46.1199 30.9977 44.5977 32.52 42.7199 32.52H37.2799C35.4021 32.52 33.8799 30.9977 33.8799 29.12C33.8799 27.2422 35.4021 25.72 37.2799 25.72Z" fill="#DEA01E"/>
</g>
</g>
<defs>
<clipPath id="clip0_636_402">
<rect width="80" height="80" fill="white"/>
</clipPath>
</defs>
</svg>
