<svg width="80" height="80" viewBox="0 0 80 80" fill="none" xmlns="http://www.w3.org/2000/svg">
<g id="Background" clip-path="url(#clip0_636_371)">
<rect id="Background_2" opacity="0.2" width="80" height="80" rx="40" fill="#DEA01E"/>
<g id="iconspace_Bill Copy_25px">
<path id="path" fill-rule="evenodd" clip-rule="evenodd" d="M31.8401 54.2806H32.8823L33.4682 53.1479C33.749 52.6051 33.8801 52.0926 33.8801 51.5889C33.8801 51.0741 33.7431 50.5417 33.449 49.9708L32.1661 47.4806H50.2001V26.4006C50.2001 25.9254 49.7251 25.5968 49.2804 25.7642L44.1128 27.7103L38.8771 25.7632C38.7218 25.7055 38.5508 25.7064 38.3961 25.7658L33.2951 27.7262L27.9963 25.763C27.5522 25.5984 27.0801 25.9269 27.0801 26.4006V49.5206C27.0801 52.1495 29.2112 54.2806 31.8401 54.2806ZM33.2001 33.88H38.6401C39.0156 33.88 39.3201 34.1844 39.3201 34.56C39.3201 34.9355 39.0156 35.24 38.6401 35.24H33.2001C32.8245 35.24 32.5201 34.9355 32.5201 34.56C32.5201 34.1844 32.8245 33.88 33.2001 33.88ZM33.2001 39.32C32.8245 39.32 32.5201 39.6244 32.5201 40C32.5201 40.3755 32.8245 40.68 33.2001 40.68H44.0801C44.4556 40.68 44.7601 40.3755 44.7601 40C44.7601 39.6244 44.4556 39.32 44.0801 39.32H33.2001ZM54.9881 52.2394C54.9881 50.3835 53.5011 48.8749 51.6536 48.84H33.8801C34.9959 49.9566 35.5919 51.0903 35.5941 52.2635C35.5963 53.4364 35.0049 54.5536 33.8935 55.6394H51.5881C53.4658 55.6394 54.9881 54.1171 54.9881 52.2394Z" fill="#DEA01E"/>
</g>
</g>
<defs>
<clipPath id="clip0_636_371">
<rect width="80" height="80" fill="white"/>
</clipPath>
</defs>
</svg>
