<svg width="126" height="36" viewBox="0 0 126 36" fill="none" xmlns="http://www.w3.org/2000/svg">
<g id="Logo">
<path id="Logo_2" fill-rule="evenodd" clip-rule="evenodd" d="M21.4662 4.22413C21.5914 4.22517 21.7161 4.28769 21.7787 4.35022L23.8618 6.43078C23.8618 6.43078 26.5763 6.61992 26.7025 6.61992C26.8288 6.61992 27.0181 6.68297 27.0181 6.87211C27.0813 7.06125 30.8688 32.7845 30.8688 32.7845L30.8687 32.7846L30.8634 32.7857L19.948 35.1173L19.9516 35.0433L0 31.3345C0 31.3345 2.52505 11.4116 2.6513 10.7811C2.77469 9.85684 2.83778 9.83586 3.72447 9.54113L3.78758 9.52014C3.91383 9.52014 5.17635 9.14186 6.94389 8.57443C7.63828 5.67426 9.78457 0 14.3297 0C14.8978 0 15.5922 0.378284 16.1603 1.0718H16.2866C18.2435 1.0718 19.3166 2.71103 19.9479 4.5394C20.5792 4.35026 21.021 4.22417 21.021 4.22417C21.0412 4.22417 21.0693 4.22257 21.1032 4.22064C21.1967 4.21532 21.3339 4.20751 21.4662 4.22413ZM17.8333 5.2349L17.8332 5.2349C17.6206 5.29301 17.3997 5.35339 17.1704 5.42208V5.0438C17.1704 3.90895 16.981 3.02628 16.7285 2.33276C17.8017 2.39581 18.496 3.59371 18.8748 4.9177C18.5532 5.03815 18.206 5.13303 17.8333 5.2349ZM16.034 5.61123C16.034 4.28724 15.8446 3.27848 15.5921 2.58496C14.4558 3.02629 13.1933 4.28724 12.562 6.87218C13.7614 6.49389 14.9608 6.11561 16.034 5.80037V5.61123ZM14.2035 1.32397C14.3929 1.32397 14.5823 1.38702 14.7716 1.51312C13.3197 2.20664 11.7416 3.90891 11.1103 7.37651C10.3713 7.62254 9.63234 7.83016 8.92335 8.02935L8.92335 8.02935L8.92331 8.02936C8.72386 8.08539 8.52679 8.14076 8.33276 8.19613C9.15341 5.54814 10.9841 1.32397 14.2035 1.32397ZM16.3497 12.6094L15.0241 16.5814C15.0241 16.5814 13.8247 15.9509 12.4359 15.9509C10.3527 15.9509 10.2265 17.2749 10.2265 17.5902C10.2265 18.3157 10.972 18.8625 11.8714 19.5222C13.2385 20.5249 14.9609 21.7883 14.9609 24.3362C14.9609 27.6777 12.8146 29.8213 9.97396 29.8213C6.56514 29.8213 4.79761 27.6777 4.79761 27.6777L5.68138 24.6514C5.68138 24.6514 7.51204 26.2276 9.02707 26.2276C10.0371 26.2276 10.4158 25.4711 10.4158 24.8406C10.4158 23.7886 9.66119 23.1863 8.81463 22.5108C7.7333 21.6479 6.50202 20.6653 6.50202 18.4728C6.50202 15.1944 8.83769 12.042 13.6353 12.042C15.4659 12.042 16.3497 12.6094 16.3497 12.6094ZM108.262 14.0595H111.228L110.66 17.1488H107.693L105.421 29.0648H101.128L103.401 17.2119H101.381L102.012 13.9965H104.032L104.158 13.303C104.474 11.5376 105.168 9.77231 106.62 8.51137C107.757 7.50261 109.272 7.06128 110.787 7.06128C112.365 7.06128 113.122 7.43956 113.122 7.43956L112.302 10.7811C112.302 10.7811 111.67 10.5919 110.913 10.5919C109.524 10.5919 108.64 11.9159 108.388 13.366L108.262 14.0595ZM58.8336 13.7442C56.9398 13.7442 55.4879 14.6269 54.2885 16.0139H54.2253L55.8666 7.37646H51.574L47.4077 29.1908H51.7003L53.1522 21.7512C53.7203 18.9141 55.1722 17.2118 56.4979 17.2118C57.4448 17.2118 57.8235 17.8423 57.8235 18.788C57.8235 19.3554 57.7604 20.112 57.6342 20.6794L55.9929 29.1908H60.3486L62.053 20.3642C62.2424 19.4185 62.3686 18.3467 62.3686 17.5901C62.3055 15.1943 61.043 13.7442 58.8336 13.7442ZM43.5571 20.0489C42.484 19.4815 41.9158 18.9771 41.9158 18.2836C41.9158 17.4009 42.6733 16.8335 43.9359 16.8335C45.3246 16.8335 46.5872 17.4009 46.5872 17.4009L47.5972 14.3747C47.5972 14.3747 46.7134 13.6812 43.999 13.6812C40.2746 13.6812 37.6864 15.8248 37.6864 18.788C37.6864 20.4903 38.8858 21.8143 40.5271 22.6969C41.8527 23.4535 42.2946 23.9579 42.2946 24.7144C42.2946 25.534 41.6633 26.1645 40.4008 26.1645C38.5701 26.1645 36.9289 25.2188 36.9289 25.2188L35.8557 28.2451C35.8557 28.2451 37.4339 29.3169 40.0852 29.3169C43.9359 29.3169 46.6503 27.4255 46.6503 24.0209C46.5872 22.3186 45.1984 21.0577 43.5571 20.0489ZM63.4419 23.5167C63.4419 18.4099 66.8507 13.7444 71.9639 13.7444C75.9409 13.7444 77.7716 16.5815 77.7716 19.7339C77.7716 24.9668 74.3627 29.5062 69.3126 29.5062C65.4619 29.5062 63.4419 26.8582 63.4419 23.5167ZM69.8808 26.1646C68.4289 26.1646 67.7976 24.9037 67.7976 23.3905C67.7976 20.9317 69.0601 16.9597 71.3958 16.9597C72.9108 16.9597 73.4158 18.2837 73.4158 19.5447C73.3527 22.1296 72.0902 26.1646 69.8808 26.1646ZM84.1472 16.2663C84.1472 16.2663 85.7885 13.7444 88.6923 13.7444C91.7855 13.7444 93.048 16.2663 93.048 19.1665C93.048 24.3994 89.7655 29.5062 84.7785 29.5062C83.1372 29.5062 82.2535 28.9388 82.2535 28.9388H82.1903L80.9909 35.2435H76.7615L79.6653 19.6708C80.044 17.9055 80.3597 15.5728 80.549 13.9966H84.3366L84.0841 16.2663H84.1472ZM84.5891 26.1647C83.4528 26.1647 82.8215 25.5342 82.8215 25.5342L83.5159 21.5622C84.0209 18.9142 85.4097 17.1489 86.8616 17.1489C88.1873 17.1489 88.566 18.3468 88.566 19.4817C88.6292 22.3188 86.9879 26.1647 84.5891 26.1647ZM96.7095 10.0245C96.7095 8.63748 97.7826 7.56567 99.1714 7.56567C100.434 7.56567 101.318 8.51138 101.318 9.70928C101.255 11.2855 100.118 12.1681 98.7926 12.1681H98.7295C97.5301 12.1681 96.7095 11.2855 96.7095 10.0245ZM93.1743 29.0647H97.4669L100.371 13.9333H96.0781L93.1743 29.0647ZM121.455 14.0596C121.455 14.0596 118.804 20.8056 117.604 24.4624H117.541C117.478 23.2645 116.468 14.0596 116.468 14.0596H111.986L114.574 27.93C114.637 28.2452 114.574 28.4344 114.511 28.6235C114.006 29.5692 113.185 30.5149 112.175 31.2084C111.355 31.7759 110.471 32.1541 109.777 32.4063L110.976 36C111.86 35.8109 113.627 35.1174 115.142 33.6673C117.099 31.8389 118.867 29.0018 120.761 25.2189L126 14.0596H121.455Z" fill="#545961"/>
</g>
</svg>
